# xmcd
#
# Track frame offsets: 
#        150
#        12946
#        28311
#        39047
#        51847
#        69003
#        80788
#        90809
#        103579
#        123995
#        135620
#        152963
#        165539
#        181552
#        198822
#        211575
#        226811
#
# Disc length: 3191 seconds
#
# Revision: 0
# Processed by: cddbd v1.5.2PL0 Copyright (c) Steve Scherf et al.
# Submitted via: ExactAudioCopy v1.0b1
#
DISCID=c30c7511
DTITLE=Albert King - King Of The Blues Guitar
DYEAR=1989
DGENRE=Modern Electric Blues
TTITLE0=Laundromat Blues
TTITLE1=Overall Junction
TTITLE2=Oh, Pretty Woman
TTITLE3=Funk Shun
TTITLE4=Crosscut Saw
TTITLE5=Down Don't Bother Me
TTITLE6=Born Under A Bad Sign
TTITLE7=Personal Manager
TTITLE8=Kansas City
TTITLE9=The Very Thought Of You
TTITLE10=The Hunter
TTITLE11=I Almost Lost My Mind
TTITLE12=As The Years Go Passing By
TTITLE13=Cold Feet
TTITLE14=You Sure Drive A Hard Bargain
TTITLE15=I Love Lucy
TTITLE16=You're Gonna Need Me
EXTD=
EXTT0=
EXTT1=
EXTT2=
EXTT3=
EXTT4=
EXTT5=
EXTT6=
EXTT7=
EXTT8=
EXTT9=
EXTT10=
EXTT11=
EXTT12=
EXTT13=
EXTT14=
EXTT15=
EXTT16=
PLAYORDER=
